<?xml version="1.0" encoding="iso-8859-1"?>
<!-- Generator: Adobe Illustrator 19.0.0, SVG Export Plug-In . SVG Version: 6.00 Build 0)  -->
<svg version="1.1" id="Layer_1" xmlns="http://www.w3.org/2000/svg" xmlns:xlink="http://www.w3.org/1999/xlink" x="0px" y="0px"
	 viewBox="0 0 505.2 505.2" style="enable-background:new 0 0 505.2 505.2;" xml:space="preserve">
<g>
	<path style="fill:#4BB19B;" d="M194,400.343c21.6,15.2,39.6,5.6,39.6-21.2v-252.4c0-26.8-17.6-36-39.6-21.2l-174,120
		c-21.6,15.2-21.6,39.6,0,54.4L194,400.343z"/>
	<path style="fill:#4BB19B;" d="M462.8,400.343c21.6,15.2,38.8,5.6,38.8-21.2v-252.4c0-26.8-16.8-36-38.8-21.2l-173.6,120
		c-21.6,15.2-22,39.6-0.4,54.4L462.8,400.343z"/>
</g>
<path d="M213.6,411.143c-6.8,0-14-2.8-21.6-8l0,0l-174-120c-11.6-8-18-18.8-18-30.4s6.4-22.4,18-30.4l174-120c11.6-8,23.2-10,32-5.2
	s14,15.2,14,29.6v252.4c0,14.4-4.8,25.2-14,29.6C220.4,410.343,217.2,411.143,213.6,411.143z M196.4,396.743
	c9.2,6.4,17.6,8,23.6,4.8s9.6-11.6,9.6-22.8v-252.4c0-11.2-3.6-19.6-9.6-22.8s-14.4-1.6-23.6,4.8l-174,120
	c-9.6,6.4-14.4,15.2-14.4,24s5.2,17.6,14.4,24L196.4,396.743z"/>
<path d="M482,411.143c-6.4,0-14-2.8-21.2-8l0,0l-174-120c-11.6-8-18-18.8-18-30.4s6.4-22.8,18-30.8l173.6-120
	c11.6-8,22.8-10,31.2-5.6c8.8,4.8,13.6,15.2,13.6,30v252.4c0,14.8-4.8,25.2-13.6,30C488.8,410.343,485.6,411.143,482,411.143z
	 M465.2,396.743c9.2,6.4,17.2,8,23.2,4.8s9.2-11.6,9.2-22.8v-252.4c0-11.2-3.6-19.6-9.2-22.8c-6-3.2-14-1.2-23.2,4.8l-173.6,120
	c-9.6,6.4-14.8,15.2-14.8,24s5.2,17.6,14.4,24L465.2,396.743z"/>
<g>
</g>
<g>
</g>
<g>
</g>
<g>
</g>
<g>
</g>
<g>
</g>
<g>
</g>
<g>
</g>
<g>
</g>
<g>
</g>
<g>
</g>
<g>
</g>
<g>
</g>
<g>
</g>
<g>
</g>
</svg>
